<?xml version="1.0" encoding="UTF-8" standalone="no"?><!DOCTYPE svg PUBLIC "-//W3C//DTD SVG 1.1//EN" "http://www.w3.org/Graphics/SVG/1.1/DTD/svg11.dtd"><svg width="100%" height="100%" viewBox="0 0 36 36" version="1.1" xmlns="http://www.w3.org/2000/svg" xmlns:xlink="http://www.w3.org/1999/xlink" xml:space="preserve" xmlns:serif="http://www.serif.com/" style="fill-rule:evenodd;clip-rule:evenodd;stroke-linejoin:round;stroke-miterlimit:1.41421;"><path d="M26.49,14.673l-0.165,-6.219l-16.677,0l-0.138,6.219l1.816,0c0,-1.449 0.294,-2.531 0.881,-3.247c0.587,-0.715 1.422,-1.082 2.504,-1.101l1.266,0l0,13.182c0,0.716 -0.073,1.239 -0.22,1.569c-0.147,0.33 -0.348,0.546 -0.605,0.647c-0.257,0.101 -0.633,0.16 -1.129,0.179l0,1.816l8.036,0l0,-2.119c-0.862,0 -1.596,0.027 -2.201,0.082c0.073,-0.422 0.11,-1.247 0.11,-2.476l0,-12.907l1.321,0c1.064,-0.018 1.894,0.344 2.49,1.087c0.596,0.743 0.895,1.839 0.895,3.288l1.816,0Z" style="fill:#fff;"/></svg>