<?xml version="1.0" encoding="UTF-8" standalone="no"?><!DOCTYPE svg PUBLIC "-//W3C//DTD SVG 1.1//EN" "http://www.w3.org/Graphics/SVG/1.1/DTD/svg11.dtd"><svg width="100%" height="100%" viewBox="0 0 24 24" version="1.1" xmlns="http://www.w3.org/2000/svg" xmlns:xlink="http://www.w3.org/1999/xlink" xml:space="preserve" xmlns:serif="http://www.serif.com/" style="fill-rule:evenodd;clip-rule:evenodd;stroke-linejoin:round;stroke-miterlimit:1.41421;"><path d="M18.994,13.37l0,2.809c0,0.374 -0.037,0.672 -0.11,0.895c-0.073,0.224 -0.208,0.425 -0.405,0.605c-0.197,0.18 -0.448,0.353 -0.755,0.52c-0.886,0.48 -1.74,0.83 -2.559,1.05c-0.82,0.22 -1.714,0.33 -2.68,0.33c-1.127,0 -2.153,-0.173 -3.08,-0.52c-0.926,-0.347 -1.716,-0.85 -2.369,-1.51c-0.653,-0.66 -1.155,-1.46 -1.505,-2.399c-0.35,-0.94 -0.525,-1.99 -0.525,-3.15c0,-1.14 0.17,-2.183 0.51,-3.13c0.34,-0.946 0.84,-1.749 1.5,-2.409c0.66,-0.66 1.463,-1.165 2.409,-1.515c0.947,-0.35 2.02,-0.525 3.22,-0.525c0.986,0 1.86,0.132 2.619,0.395c0.514,0.178 0.97,0.377 1.346,0.628c1.05,0.703 0.83,2.855 -1.767,1.883c-0.236,-0.089 -0.426,-0.183 -0.773,-0.316c-0.443,-0.17 -0.979,-0.3 -1.645,-0.3c-0.687,0 -1.3,0.118 -1.84,0.355c-0.54,0.236 -1.001,0.58 -1.385,1.03c-0.383,0.45 -0.676,1.001 -0.879,1.654c-0.204,0.654 -0.305,1.377 -0.305,2.17c0,1.72 0.395,3.043 1.184,3.969c0.79,0.927 1.892,1.39 3.305,1.39c0.686,0 1.331,-0.09 1.935,-0.27c0.603,-0.18 1.214,-0.436 1.834,-0.77l0,-2.379l-2.299,0c-0.554,0 -0.972,-0.084 -1.255,-0.25c-0.283,-0.167 -0.425,-0.45 -0.425,-0.85c0,-0.327 0.118,-0.597 0.355,-0.81c0.237,-0.213 0.558,-0.32 0.965,-0.32l3.369,0c0.414,0 0.763,0.037 1.05,0.11c0.287,0.073 0.518,0.237 0.695,0.49c0.177,0.253 0.265,0.633 0.265,1.14Z" style="fill:#fff;fill-rule:nonzero;"/></svg>