<?xml version="1.0" encoding="UTF-8" standalone="no"?><!DOCTYPE svg PUBLIC "-//W3C//DTD SVG 1.1//EN" "http://www.w3.org/Graphics/SVG/1.1/DTD/svg11.dtd"><svg width="100%" height="100%" viewBox="0 0 24 24" version="1.1" xmlns="http://www.w3.org/2000/svg" xmlns:xlink="http://www.w3.org/1999/xlink" xml:space="preserve" xmlns:serif="http://www.serif.com/" style="fill-rule:evenodd;clip-rule:evenodd;stroke-linejoin:round;stroke-miterlimit:1.41421;"><path d="M9.691,5.547l-0.511,2.248l-1.024,1.335l-0.78,1.631l0,2.023l0.78,2.22l1.08,0.839l0.433,3.237l4.277,-0.044l1.035,-3.193l1.08,-1.52l0.705,-1.809l-0.399,-2.485l-0.989,-1.521l-0.624,-0.94l-0.808,-2.508l-3.999,-0.148l-0.256,0.635Z" style="fill:#fff;"/><path d="M9.764,4.469c-0.211,0.023 -0.386,0.176 -0.435,0.383l-0.824,3.317c-1.052,0.953 -1.711,2.33 -1.711,3.857c0,1.525 0.657,2.899 1.705,3.852c0.002,0.002 0.004,0.004 0.006,0.006l0.824,3.317c0.055,0.223 0.257,0.382 0.488,0.383l4.366,0c0.231,-0.001 0.433,-0.16 0.488,-0.383l0.824,-3.317l0.006,-0.006c1.048,-0.953 1.705,-2.327 1.705,-3.852c0,-1.527 -0.659,-2.904 -1.711,-3.857l-0.824,-3.317c-0.055,-0.224 -0.257,-0.383 -0.488,-0.383l-4.366,0c-0.018,-0.001 -0.035,-0.001 -0.053,0Zm0.446,1.007l3.58,0l0.462,1.853c-0.682,-0.328 -1.447,-0.509 -2.252,-0.509c-0.805,0 -1.57,0.181 -2.252,0.509l0.462,-1.853Zm1.79,2.352c2.325,0 4.199,1.873 4.199,4.198c0,2.325 -1.874,4.199 -4.199,4.199c-2.325,0 -4.199,-1.874 -4.199,-4.199c0,-2.325 1.874,-4.198 4.199,-4.198Zm-0.005,0.661c-0.018,0.001 -0.035,0.002 -0.053,0.005c-0.256,0.03 -0.45,0.251 -0.446,0.509l0,3.023c0,0.277 0.228,0.504 0.504,0.504l1.679,0c0.003,0 0.005,0 0.008,0c0.276,0 0.503,-0.227 0.503,-0.504c0,-0.276 -0.227,-0.504 -0.503,-0.504c-0.003,0 -0.005,0 -0.008,0l-1.175,0l0,-2.519c0,-0.003 0,-0.007 0,-0.01c0,-0.277 -0.228,-0.504 -0.504,-0.504c-0.002,0 -0.003,0 -0.005,0Zm-2.247,8.229c0.682,0.329 1.447,0.514 2.252,0.514c0.805,0 1.57,-0.185 2.252,-0.514l-0.462,1.858l-3.58,0l-0.462,-1.858Z" style="fill:#7856bb;fill-rule:nonzero;"/></svg>