<?xml version="1.0" encoding="UTF-8" standalone="no"?>
<!DOCTYPE svg PUBLIC "-//W3C//DTD SVG 1.1//EN" "http://www.w3.org/Graphics/SVG/1.1/DTD/svg11.dtd">
<svg width="100%" height="100%" viewBox="0 0 200 200" version="1.1" xmlns="http://www.w3.org/2000/svg" xmlns:xlink="http://www.w3.org/1999/xlink" xml:space="preserve" xmlns:serif="http://www.serif.com/" style="fill-rule:evenodd;clip-rule:evenodd;stroke-linejoin:round;stroke-miterlimit:2;">
    <g transform="matrix(2.23574,0,0,2.23574,0,-0.0543724)">
        <circle cx="44.728" cy="44.772" r="44.728" style="fill:rgb(255,105,68);"/>
    </g>
    <g transform="matrix(2.23574,0,0,2.23574,0,-0.0543724)">
        <path d="M66.421,23.649C64.44,27.477 59.962,29.286 55.879,27.907C54.245,27.249 52.822,26.891 51.654,26.662C49.615,26.263 48.025,26.199 45.981,26.2C35.731,26.2 28.662,34.522 28.662,44.772C28.662,55.023 35.732,63.486 45.981,63.345C54.141,63.233 57.794,58.236 59.354,51.137L47.083,51.137C46.791,51.137 46.511,51.021 46.304,50.814C46.097,50.607 45.981,50.327 45.981,50.035L45.981,50.032C45.981,47.474 46.997,45.02 48.806,43.211C50.615,41.402 53.069,40.386 55.627,40.386L68.366,40.386C69.746,40.386 70.925,41.38 71.158,42.739C71.409,44.31 71.544,45.92 71.544,47.562C71.544,58.776 63.58,74.096 45.981,74.096C29.797,74.096 17.911,60.956 17.911,44.772C17.911,28.588 29.797,15.449 45.981,15.449C49.972,15.444 53.628,15.798 57.244,16.708C60.149,17.44 62.915,18.915 65.698,20.809C66.621,21.437 66.93,22.655 66.417,23.646C66.421,23.648 66.421,23.649 66.421,23.649Z" style="fill:white;"/>
    </g>
    <g transform="matrix(2.23574,0,0,2.23574,0,-0.0543724)">
        <path d="M71.268,51.14C70.99,53.141 70.48,55.201 69.725,57.218L57.08,57.218C58.125,55.495 58.834,53.47 59.353,51.14L71.268,51.14Z" style="fill-opacity:0.18;"/>
    </g>
</svg>
