<?xml version="1.0" encoding="UTF-8" standalone="no"?><!DOCTYPE svg PUBLIC "-//W3C//DTD SVG 1.1//EN" "http://www.w3.org/Graphics/SVG/1.1/DTD/svg11.dtd"><svg width="100%" height="100%" viewBox="0 0 24 24" version="1.1" xmlns="http://www.w3.org/2000/svg" xmlns:xlink="http://www.w3.org/1999/xlink" xml:space="preserve" xmlns:serif="http://www.serif.com/" style="fill-rule:evenodd;clip-rule:evenodd;stroke-linejoin:round;stroke-miterlimit:1.41421;"><path id="path-7" d="M9.873,6.951l0,3.801l4.664,0c0.375,0 0.688,0.119 0.94,0.356c0.252,0.238 0.378,0.544 0.378,0.918c0,0.317 -0.126,0.597 -0.378,0.842c-0.252,0.245 -0.565,0.367 -0.94,0.367l-4.664,0l0,5.031c0,0.375 -0.133,0.688 -0.399,0.94c-0.267,0.252 -0.58,0.378 -0.94,0.378c-0.403,0 -0.73,-0.123 -0.982,-0.367c-0.252,-0.245 -0.378,-0.562 -0.378,-0.951l0,-12.481c0,-0.374 0.126,-0.687 0.378,-0.939c0.252,-0.252 0.565,-0.378 0.939,-0.378l7.018,0c0.374,0 0.687,0.119 0.939,0.356c0.252,0.238 0.378,0.544 0.378,0.918c0,0.317 -0.126,0.597 -0.378,0.842c-0.252,0.245 -0.565,0.367 -0.939,0.367l-5.636,0Z" style="fill:#fff;"/></svg>