<?xml version="1.0" encoding="UTF-8" standalone="no"?><!DOCTYPE svg PUBLIC "-//W3C//DTD SVG 1.1//EN" "http://www.w3.org/Graphics/SVG/1.1/DTD/svg11.dtd"><svg width="100%" height="100%" viewBox="0 0 36 36" version="1.1" xmlns="http://www.w3.org/2000/svg" xmlns:xlink="http://www.w3.org/1999/xlink" xml:space="preserve" xmlns:serif="http://www.serif.com/" style="fill-rule:evenodd;clip-rule:evenodd;stroke-linejoin:round;stroke-miterlimit:1.41421;"><path d="M18.479,6.643c2.284,0.017 4.559,0.73 6.434,2.038c1.154,0.748 1.507,2.227 0.456,3.361c-0.189,0.191 -0.379,0.382 -0.568,0.572c-0.385,0.386 -0.944,0.944 -0.944,0.944c-0.781,0.704 -1.856,0.774 -2.78,0.169c-2.352,-1.541 -5.634,-0.727 -7.098,1.903c-1.512,2.715 -0.045,6.072 2.683,7.091c1.493,0.558 3.175,0.378 4.571,-0.542c0.381,-0.25 1.647,-0.685 2.617,0.273c0.459,0.454 0.922,0.913 1.343,1.333c0.507,0.505 0.728,0.926 0.776,1.501c0.096,1.144 -0.557,1.894 -2.077,2.677c-4.068,2.234 -9.165,1.874 -13.007,-1.461c-3.868,-3.29 -5.004,-9.236 -2.517,-13.792c2.024,-3.709 5.734,-6.013 9.833,-6.066c0.093,-0.001 0.185,-0.002 0.278,-0.001Z" style="fill:#fff;"/></svg>